<?xml version="1.0" encoding="UTF-8" standalone="no"?><!DOCTYPE svg PUBLIC "-//W3C//DTD SVG 1.1//EN" "http://www.w3.org/Graphics/SVG/1.1/DTD/svg11.dtd"><svg width="100%" height="100%" viewBox="0 0 3508 3508" version="1.1" xmlns="http://www.w3.org/2000/svg" xmlns:xlink="http://www.w3.org/1999/xlink" xml:space="preserve" xmlns:serif="http://www.serif.com/" style="fill-rule:evenodd;clip-rule:evenodd;stroke-linejoin:round;stroke-miterlimit:2;"><rect id="Artboard2" x="0" y="0" width="3507.87" height="3507.87" style="fill:none;"/><path id="path972" d="M1598.59,47.872c-270.693,33.621 -551.398,-42.137 -816.6,39.884c-90.723,42.191 -64.306,168.291 -56.446,249.669c11.81,151.279 -6.393,303.703 -1.135,455.867c-3.082,612.829 -0.378,1148.78 41.94,1760.1c45.245,110.55 232.564,117.85 216.378,11.497c-13.998,-616.479 -42.982,-1239.76 -37.373,-1856.34c4.766,-139.623 2.932,-282.473 17.741,-419.522c56.911,-41.858 138.581,-21.271 198.06,-8.761c-2.332,65.812 -76.501,107.761 -85.592,175.403c-86.351,256.539 29.291,527.843 177.255,736.661c70.118,124.944 175.463,243.227 185.72,391.529c-91.446,44.692 -214.664,-51.084 -294.018,36.577c-87.332,68.009 -24.561,225.959 86.184,210.351c127.614,17.186 273.631,-53.692 386.939,30.998c81.831,111.026 149.461,238.266 199.665,363.567c-31.864,39.697 -89.303,-10.149 -132.107,8.547c-392.256,29.55 -679.072,419.515 -482.017,769.454c33.905,65.103 66.436,137.244 120.046,184.906c53.611,47.662 143.168,78.113 202.201,119.596c56.758,39.884 76.562,56.674 161.983,74.411c109.303,22.695 150.365,22.745 216.306,20.39c77.806,0 124.49,-6.167 181.807,-4.247c57.317,1.924 79.505,-1.753 148.137,-6.962c57.243,-4.345 125.805,1.196 220.538,-14.97c55.905,-9.541 242.911,-9.386 318.881,-21.578c35.273,-173.182 -139.339,-223.136 -113.238,-350.095c-8.865,-718.175 32.171,-1438.5 -23.642,-2155.12c-47.309,-99.702 -198.462,-36.046 -207.118,58.912c18.106,726.709 18.854,1456.27 2.118,2183.12c-1.953,51.319 12.725,130.97 -62.955,127.039c-47.596,-0.91 -109.148,2.263 -147.86,-14.611c8.7,-61.149 74.608,-97.942 83.543,-162.076c89.666,-258.647 -17.348,-539.994 -172.664,-749.593c-77.868,-148.105 -210.647,-291.202 -217.582,-461.845c108.188,-35.63 248.585,55.431 336.616,-46.423c80.106,-70.493 6.766,-208.741 -94.773,-196.604c-141.166,-23.346 -306.095,64.196 -430.007,-35.244c-65.975,-82.425 -114.132,-180.5 -155.585,-276.322c-4.755,-61.49 81.325,-16.405 116.171,-27.592c218.842,0.854 410.359,-164.866 497.606,-357.027c95.914,-198.61 69.439,-449.97 -80.261,-615.258c-121.966,-147.472 -313.643,-233.881 -504.862,-228.293l-0,0.005Z" style="fill:#23201e;fill-rule:nonzero;"/><path id="path974" d="M939.531,96.943c-7.409,0 -13.374,5.965 -13.374,13.374l0,2514.22c0,7.409 5.965,13.373 13.374,13.373l106.988,0c7.409,0 13.373,-5.964 13.373,-13.373l0,-2398.63l386.192,0c545.18,40.693 -199.308,260.825 -199.505,425.091c0.237,77.903 16.901,154.88 48.903,225.906c0.114,1.556 0.535,3.108 1.359,4.552l3.153,5.531c11.339,23.957 24.383,47.069 39.031,69.159l373.386,679.475l-387.779,0c-5.953,0 -10.742,4.795 -10.742,10.749l0,125.082c0,5.954 4.789,10.748 10.742,10.748l468.51,0l299.584,531.159c-60.255,-22.003 -123.873,-33.376 -188.019,-33.61c-305.987,0.003 -554.037,248.053 -554.039,554.04c0.366,294.702 231.369,537.545 525.686,552.629c1.786,0.881 3.776,1.417 5.909,1.417l780.73,-32.598l106.988,-0c7.409,-0 13.684,-5.971 13.373,-13.374l-106.09,-2525.74c-0.31,-7.402 -5.968,-13.131 -13.373,-13.373l-108.318,-3.546c-14.944,-0.739 -48.345,6.635 -47.948,13.373l141.994,2413.7l-390.371,32.598c126.23,-105.116 199.309,-260.825 199.505,-425.091c-0.237,-77.903 -16.901,-154.88 -48.903,-225.907c-0.114,-1.555 -0.534,-3.107 -1.358,-4.551l-3.154,-5.531c-11.339,-23.957 -24.383,-47.069 -39.03,-69.159l-410.183,-746.441l429.786,0c5.954,0 10.742,-4.794 10.742,-10.748l-0,-125.082c-0,-5.954 -4.788,-10.749 -10.742,-10.749l-511.49,0l-261.815,-464.193c60.255,22.003 123.873,33.376 188.019,33.61c305.987,-0.002 554.037,-248.053 554.04,-554.04c-0.367,-294.702 -231.37,-537.545 -525.687,-552.629c-1.786,-0.881 -3.776,-1.417 -5.909,-1.417l-883.538,0Z" style="fill:#194a81;fill-rule:nonzero;"/><circle id="circle976" cx="1747.95" cy="2828.05" r="401.205" style="fill:#23201e;"/><circle id="circle978" cx="1537.65" cy="648.17" r="401.205" style="fill:#23201e;"/></svg>